# xmcd
#
# Track frame offsets:
#	150
#	16862
#	30962
#	43012
#	57612
#	69692
#	81207
#	99700
#	111662
#	128875
#	144562
#	158112
#	174262
#	183862
#	196067
#	211137
#	226062
#	239862
#	256800
#	268500
#
# Disc length: 3802 seconds
# Revision: 4
# Processed by: cddbd v1.5.2PL0 Copyright (c) Steve Scherf et al.
# Submitted via: dBpowerAMP V12.0
#
DISCID=150ed814
DTITLE=Various Artist - The Sound Of Branson Missouri, Disc 2
DYEAR=1997
DGENRE=Country
TTITLE0=The Oak Ridge Boys - Elvira
TTITLE1=Barbara Mandrell - (If Loving You Is Wrong) I Don't Want to Be Right
TTITLE2=Willie Nelson With Danny Davis And The Nashville Brass - Funny How Time Slips Away
TTITLE3=Eddie Rabbitt - Drivin' My Life Away
TTITLE4=Tammy Wynette - Stand By Your Man
TTITLE5=Merle Haggard - Red Bandana
TTITLE6=Don Williams - I Belive in You
TTITLE7=Marie Osmond - Paper Roses
TTITLE8=T.G. Sheppard - Finally
TTITLE9=Don Williams - Till the Rivers All Run Dry
TTITLE10=Mel McDaniel - Baby's Got Her Blue Jeans On
TTITLE11=Jeannie Seely - Can I Sleep in Your Arms
TTITLE12=Johnny Rodriguez - Ridin' My Thumb to Mexico
TTITLE13=Bill Anderson - World of Make Belive
TTITLE14=Louise Mandrell - I Wanna Say Yes
TTITLE15=Waylon Jennings - Luckenbach, Texas (Back To The Basics Of Love)
TTITLE16=Tanya Tucker - Lizzie and the Rainman
TTITLE17=T.G. Sheppard - Last Cheater's Waltz
TTITLE18=The Everly Brothers - On the Wings of a Nightingale
TTITLE19=Ricky Skaggs - Cajun Moon
EXTD=
EXTT0=
EXTT1=
EXTT2=
EXTT3=
EXTT4=
EXTT5=
EXTT6=
EXTT7=
EXTT8=
EXTT9=
EXTT10=
EXTT11=
EXTT12=
EXTT13=
EXTT14=
EXTT15=
EXTT16=
EXTT17=
EXTT18=
EXTT19=
PLAYORDER=
